<svg id="Livello_1" data-name="Livello 1" xmlns="http://www.w3.org/2000/svg" viewBox="0 0 230 230"><defs><style>.cls-1{fill:#fff;}.cls-2,.cls-4{fill:none;stroke:#3f3f3e;stroke-miterlimit:10;}.cls-2{stroke-width:6px;}.cls-3{fill:#3f3f3e;}.cls-4{stroke-width:14px;}.cls-5{fill:#d40000;}.cls-6{fill:#4173cc;}.cls-7{fill:#00bf03;}</style></defs><rect class="cls-1" width="230" height="230"/><circle class="cls-2" cx="145.28" cy="115" r="33.67"/><path class="cls-3" d="M352.47,264.66a21.55,21.55,0,1,1-21.54-21.54,21.3,21.3,0,0,1,6.66,1.06,11.22,11.22,0,1,0,14.35,15.75A21,21,0,0,1,352.47,264.66Z" transform="translate(-186 -149.66)"/><path class="cls-4" d="M284.08,214a70.25,70.25,0,1,1,4.27,106.55" transform="translate(-186 -149.66)"/><rect class="cls-5" x="72.94" y="68.67" width="20.37" height="20.37" rx="2.95"/><rect class="cls-6" x="83.94" y="144.67" width="20.37" height="20.37" rx="3"/><rect class="cls-6" x="32.28" y="117.17" width="13.42" height="13.42" rx="2.62"/><rect class="cls-5" x="38.98" y="80.04" width="14.62" height="14.62" rx="2.92"/><rect class="cls-5" x="58.28" y="103.75" width="14.67" height="14.67" rx="2.69"/><rect class="cls-7" x="82.28" y="115" width="15.58" height="15.58" rx="3.88"/><rect class="cls-7" x="53.61" y="127.67" width="9.75" height="9.75" rx="1.79"/><rect class="cls-6" x="102.78" y="80.04" width="9.75" height="9.75" rx="2.44"/><rect class="cls-7" x="4.61" y="91" width="7.75" height="7.75" rx="1.08"/><rect class="cls-6" x="10.61" y="127.71" width="7.75" height="7.75" rx="1.25"/><rect class="cls-5" x="76.19" y="96.83" width="7.75" height="7.75" rx="2.71"/><rect class="cls-7" x="59.48" y="90.79" width="7.75" height="7.75" rx="2.58"/><rect class="cls-7" x="41.82" y="103.67" width="7.75" height="7.75" rx="1.81"/><rect class="cls-7" x="101.94" y="131.58" width="7.75" height="7.75" rx="1.23"/><rect class="cls-6" x="68.44" y="124.79" width="4.5" height="4.5" rx="1.3"/><rect class="cls-6" x="26.28" y="98.46" width="4.5" height="4.5" rx="1.04"/><rect class="cls-6" x="91.88" y="135.17" width="4.5" height="4.5" rx="1.07"/><rect class="cls-5" x="15.15" y="109.42" width="7.75" height="7.75" rx="1.29"/><rect class="cls-5" x="38.98" y="135.46" width="7.75" height="7.75" rx="1.33"/><rect class="cls-5" x="65.57" y="140.79" width="11.29" height="11.29" rx="2.37"/><rect class="cls-5" x="90.66" y="96.31" width="11.29" height="11.29" rx="1.52"/></svg>