<?xml version="1.0" encoding="UTF-8" standalone="no"?>
<!-- Created with Inkscape (http://www.inkscape.org/) -->

<svg
   xmlns:dc="http://purl.org/dc/elements/1.1/"
   xmlns:cc="http://creativecommons.org/ns#"
   xmlns:rdf="http://www.w3.org/1999/02/22-rdf-syntax-ns#"
   xmlns:svg="http://www.w3.org/2000/svg"
   xmlns="http://www.w3.org/2000/svg"
   xmlns:sodipodi="http://sodipodi.sourceforge.net/DTD/sodipodi-0.dtd"
   xmlns:inkscape="http://www.inkscape.org/namespaces/inkscape"
   id="svg4365"
   version="1.1"
   inkscape:version="0.91 r13725"
   xml:space="preserve"
   width="134.20026"
   height="68"
   viewBox="0 0 134.20026 68"
   sodipodi:docname="mivia.svg"><metadata
     id="metadata4371"><rdf:RDF><cc:Work
         rdf:about=""><dc:format>image/svg+xml</dc:format><dc:type
           rdf:resource="http://purl.org/dc/dcmitype/StillImage" /><dc:title /></cc:Work></rdf:RDF></metadata><defs
     id="defs4369"><clipPath
       clipPathUnits="userSpaceOnUse"
       id="clipPath4381"><path
         d="m 50.4,64.22002 405.96,0 0,723.78 -405.96,0 0,-723.78 z"
         id="path4383"
         inkscape:connector-curvature="0" /></clipPath><clipPath
       clipPathUnits="userSpaceOnUse"
       id="clipPath4949"><path
         d="m 49.44,62.24002 408.9,0 0,726.72 -408.9,0 0,-726.72 z"
         id="path4951"
         inkscape:connector-curvature="0" /></clipPath><clipPath
       clipPathUnits="userSpaceOnUse"
       id="clipPath5137"><path
         d="m 56.34992,663.7225 166.07,0 0,123.3174 -166.07,0 0,-123.3174 z"
         id="path5139"
         inkscape:connector-curvature="0" /></clipPath><clipPath
       clipPathUnits="userSpaceOnUse"
       id="clipPath5143"><path
         d="m 63,696 160,0 0,76 -160,0 0,-76 z"
         id="path5145"
         inkscape:connector-curvature="0" /></clipPath><clipPath
       clipPathUnits="userSpaceOnUse"
       id="clipPath5147"><path
         d="m 56.34992,663.7225 166.07,0 0,124.2775 -166.07,0 0,-124.2775 z"
         id="path5149"
         inkscape:connector-curvature="0" /></clipPath><clipPath
       clipPathUnits="userSpaceOnUse"
       id="clipPath5151"><path
         d="m 56.34992,663.7225 166.07,0 0,124.2775 -166.07,0 0,-124.2775 z"
         id="path5153"
         inkscape:connector-curvature="0" /></clipPath><clipPath
       clipPathUnits="userSpaceOnUse"
       id="clipPath5155"><path
         d="m 100,714 45,0 0,45 -45,0 0,-45 z"
         id="path5157"
         inkscape:connector-curvature="0" /></clipPath><clipPath
       clipPathUnits="userSpaceOnUse"
       id="clipPath5159"><path
         d="m 100.6591,714.5746 43.57469,0 0,43.47845 -43.57469,0 0,-43.47845 z"
         id="path5161"
         inkscape:connector-curvature="0" /></clipPath><clipPath
       clipPathUnits="userSpaceOnUse"
       id="clipPath5163"><path
         d="m 56.34992,663.7225 166.07,0 0,124.2775 -166.07,0 0,-124.2775 z"
         id="path5165"
         inkscape:connector-curvature="0" /></clipPath><clipPath
       clipPathUnits="userSpaceOnUse"
       id="clipPath5167"><path
         d="m 94,697 44,0 0,45 -44,0 0,-45 z"
         id="path5169"
         inkscape:connector-curvature="0" /></clipPath><clipPath
       clipPathUnits="userSpaceOnUse"
       id="clipPath5171"><path
         d="m 94.27727,697.9741 43.57469,0 0,43.47845 -43.57469,0 0,-43.47845 z"
         id="path5173"
         inkscape:connector-curvature="0" /></clipPath><clipPath
       clipPathUnits="userSpaceOnUse"
       id="clipPath5175"><path
         d="m 56.34992,663.7225 166.07,0 0,124.2775 -166.07,0 0,-124.2775 z"
         id="path5177"
         inkscape:connector-curvature="0" /></clipPath><clipPath
       clipPathUnits="userSpaceOnUse"
       id="clipPath5179"><path
         d="m 72,697 45,0 0,45 -45,0 0,-45 z"
         id="path5181"
         inkscape:connector-curvature="0" /></clipPath><clipPath
       clipPathUnits="userSpaceOnUse"
       id="clipPath5183"><path
         d="m 72.58022,697.9738 43.57468,0 0,43.47876 -43.57468,0 0,-43.47876 z"
         id="path5185"
         inkscape:connector-curvature="0" /></clipPath><clipPath
       clipPathUnits="userSpaceOnUse"
       id="clipPath5187"><path
         d="m 56.34992,663.7225 166.07,0 0,124.2775 -166.07,0 0,-124.2775 z"
         id="path5189"
         inkscape:connector-curvature="0" /></clipPath><clipPath
       clipPathUnits="userSpaceOnUse"
       id="clipPath5191"><path
         d="m 65,714 45,0 0,45 -45,0 0,-45 z"
         id="path5193"
         inkscape:connector-curvature="0" /></clipPath><clipPath
       clipPathUnits="userSpaceOnUse"
       id="clipPath5195"><path
         d="m 65.52425,714.5746 43.57476,0 0,43.47845 -43.57476,0 0,-43.47845 z"
         id="path5197"
         inkscape:connector-curvature="0" /></clipPath><clipPath
       clipPathUnits="userSpaceOnUse"
       id="clipPath5199"><path
         d="m 56,663 167,0 0,125 -167,0 0,-125 z"
         id="path5201"
         inkscape:connector-curvature="0" /></clipPath><clipPath
       clipPathUnits="userSpaceOnUse"
       id="clipPath5203"><path
         d="m 56.34992,663.7225 166.07,0 0,124.2775 -166.07,0 0,-124.2775 z"
         id="path5205"
         inkscape:connector-curvature="0" /></clipPath><clipPath
       clipPathUnits="userSpaceOnUse"
       id="clipPath5207"><path
         d="m 56,663 167,0 0,125 -167,0 0,-125 z"
         id="path5209"
         inkscape:connector-curvature="0" /></clipPath><clipPath
       clipPathUnits="userSpaceOnUse"
       id="clipPath5211"><path
         d="m 56.34992,663.7225 166.07,0 0,124.2775 -166.07,0 0,-124.2775 z"
         id="path5213"
         inkscape:connector-curvature="0" /></clipPath><clipPath
       clipPathUnits="userSpaceOnUse"
       id="clipPath5215"><path
         d="m 56,663 167,0 0,125 -167,0 0,-125 z"
         id="path5217"
         inkscape:connector-curvature="0" /></clipPath><clipPath
       clipPathUnits="userSpaceOnUse"
       id="clipPath5219"><path
         d="m 56.34992,663.7225 166.07,0 0,124.2775 -166.07,0 0,-124.2775 z"
         id="path5221"
         inkscape:connector-curvature="0" /></clipPath><clipPath
       clipPathUnits="userSpaceOnUse"
       id="clipPath5223"><path
         d="m 56,663 167,0 0,125 -167,0 0,-125 z"
         id="path5225"
         inkscape:connector-curvature="0" /></clipPath><clipPath
       clipPathUnits="userSpaceOnUse"
       id="clipPath5227"><path
         d="m 56.34992,663.7225 166.07,0 0,124.2775 -166.07,0 0,-124.2775 z"
         id="path5229"
         inkscape:connector-curvature="0" /></clipPath><clipPath
       clipPathUnits="userSpaceOnUse"
       id="clipPath5231"><path
         d="m 56,663 167,0 0,125 -167,0 0,-125 z"
         id="path5233"
         inkscape:connector-curvature="0" /></clipPath><clipPath
       clipPathUnits="userSpaceOnUse"
       id="clipPath5235"><path
         d="m 56.34992,663.7225 166.07,0 0,124.2775 -166.07,0 0,-124.2775 z"
         id="path5237"
         inkscape:connector-curvature="0" /></clipPath></defs><sodipodi:namedview
     pagecolor="#ffffff"
     bordercolor="#666666"
     borderopacity="1"
     objecttolerance="10"
     gridtolerance="10"
     guidetolerance="10"
     inkscape:pageopacity="0"
     inkscape:pageshadow="2"
     inkscape:window-width="1366"
     inkscape:window-height="715"
     id="namedview4367"
     showgrid="false"
     fit-margin-top="0"
     fit-margin-left="0"
     fit-margin-right="0"
     fit-margin-bottom="0"
     inkscape:zoom="6.4679459"
     inkscape:cx="67.100128"
     inkscape:cy="34.000002"
     inkscape:window-x="-8"
     inkscape:window-y="-8"
     inkscape:window-maximized="1"
     inkscape:current-layer="g4373" /><g
     id="g4373"
     inkscape:groupmode="layer"
     inkscape:label="Mivia"
     transform="matrix(1.25,0,0,-1.25,-79.636488,938.2035)"
     style="display:inline"><g
       id="g4375" /><g
       id="g5243"
       transform="matrix(0.72635895,0,0,0.72635895,17.43345,190.49872)" /><g
       id="g5259"
       transform="matrix(0.72635895,0,0,0.72635895,17.43345,190.49872)" /><g
       id="g5279"
       transform="matrix(0.72635895,0,0,0.72635895,17.43345,190.49872)" /><g
       id="g5299"
       transform="matrix(0.72635895,0,0,0.72635895,17.43345,190.49872)" /><g
       id="g5333"
       transform="matrix(0.72635895,0,0,0.72635895,17.43345,190.49872)"><g
         clip-path="url(#clipPath5199)"
         id="g5335"><g
           transform="matrix(0.1383917,0,0,0.1380861,56.34992,663.7225)"
           id="g5337" /></g></g><g
       id="g5351"
       transform="matrix(0.72635895,0,0,0.72635895,17.43345,190.49872)"><g
         clip-path="url(#clipPath5207)"
         id="g5353"><g
           transform="matrix(0.1383917,0,0,0.1380861,56.34992,663.7225)"
           id="g5355" /></g></g><g
       id="g5369"
       transform="matrix(0.72635895,0,0,0.72635895,17.43345,190.49872)"><g
         clip-path="url(#clipPath5215)"
         id="g5371"><g
           transform="matrix(0.1383917,0,0,0.1380861,56.34992,663.7225)"
           id="g5373" /></g></g><g
       id="g5387"
       transform="matrix(0.72635895,0,0,0.72635895,17.43345,190.49872)"><g
         clip-path="url(#clipPath5223)"
         id="g5389"><g
           transform="matrix(0.1383917,0,0,0.1380861,56.34992,663.7225)"
           id="g5391" /></g></g><g
       id="g5405"
       transform="matrix(0.72635895,0,0,0.72635895,17.43345,190.49872)"><g
         clip-path="url(#clipPath5231)"
         id="g5407"><g
           transform="matrix(0.1383917,0,0,0.1380861,56.34992,663.7225)"
           id="g5409" /></g></g><g
       id="g4764"><g
         id="g4724"><g
           id="g4693"><path
             inkscape:connector-curvature="0"
             id="path5251"
             style="fill:#e5312d;fill-opacity:1;fill-rule:nonzero;stroke:none"
             d="m 77.27079,733.45538 c 0,8.54344 7.662979,16.29222 16.225695,16.29222 8.562535,0 16.225505,-7.74878 16.225505,-16.29222 0,-8.5436 -7.66297,-16.18938 -16.225505,-16.18938 -8.562716,0 -16.225695,7.64578 -16.225695,16.18938" /><path
             inkscape:connector-curvature="0"
             id="path5249"
             style="fill:#35519d;fill-opacity:1;fill-rule:nonzero;stroke:none"
             d="m 93.496742,717.66637 c 8.351308,0 15.825478,7.45731 15.825478,15.79031 0,8.33308 -7.47417,15.79054 -15.825478,15.79054 -8.351602,0 -15.725097,-7.45746 -15.725097,-15.79054 0,-8.333 7.373495,-15.79031 15.725097,-15.79031 m 17.143818,15.79046 c 0,-9.44732 -7.6758,-17.10612 -17.143818,-17.10612 -9.468306,0 -17.143967,7.6588 -17.143967,17.10612 0,9.44746 7.675661,17.10597 17.143967,17.10597 9.468018,0 17.143818,-7.65851 17.143818,-17.10597" /></g><g
           id="g4697"><g
             transform="matrix(0.74472589,0,0,0.74475516,15.184953,176.95328)"
             id="g5261"><g
               style="opacity:0.8"
               id="g5263"
               clip-path="url(#clipPath5155)"><g
                 id="g5265" /><g
                 id="g5267"><g
                   id="g5269"
                   clip-path="url(#clipPath5159)"><path
                     inkscape:connector-curvature="0"
                     id="path5271"
                     style="fill:#62b239;fill-opacity:1;fill-rule:nonzero;stroke:none"
                     d="m 100.6591,736.3141 c 0,11.4722 10.2896,21.7392 21.7874,21.7392 11.4977,0 21.7873,-10.267 21.7873,-21.7392 0,-11.4726 -10.2896,-21.7395 -21.7873,-21.7395 -11.4978,0 -21.7874,10.2669 -21.7874,21.7395" /></g></g></g></g><path
             inkscape:connector-curvature="0"
             id="path5253"
             style="fill:#35519d;fill-opacity:1;fill-rule:nonzero;stroke:none"
             d="m 106.37356,709.53638 c 8.35146,0 15.82533,7.45738 15.82533,15.79046 0,8.33315 -7.47387,15.79053 -15.82533,15.79053 -8.351601,0 -15.825472,-7.45738 -15.825472,-15.79053 0,-8.33308 7.473871,-15.79046 15.825472,-15.79046 m 17.14374,15.7906 c 0,-9.44738 -7.67558,-17.10619 -17.14367,-17.10619 -9.468376,0 -17.14392,7.65881 -17.14392,17.10619 0,9.44732 7.675544,17.10598 17.14392,17.10598 9.46809,0 17.14367,-7.65866 17.14367,-17.10598" /></g><g
           id="g4706"><g
             transform="matrix(0.74472607,0,0,0.74475602,15.301642,177.25839)"
             id="g5281"><g
               style="opacity:0.8"
               id="g5283"
               clip-path="url(#clipPath5167)"><g
                 id="g5285" /><g
                 id="g5287"><g
                   id="g5289"
                   clip-path="url(#clipPath5171)"><path
                     inkscape:connector-curvature="0"
                     id="path5291"
                     style="fill:#e7e127;fill-opacity:1;fill-rule:nonzero;stroke:none"
                     d="m 94.27728,719.7134 c 0,11.4722 10.28952,21.7391 21.78742,21.7391 11.4977,0 21.7873,-10.2669 21.7873,-21.7391 0,-11.4724 -10.2896,-21.7394 -21.7873,-21.7394 -11.4979,0 -21.78742,10.267 -21.78742,21.7394" /></g></g></g></g><path
             inkscape:connector-curvature="0"
             id="path5273"
             style="fill:#35519d;fill-opacity:1;fill-rule:nonzero;stroke:none"
             d="m 101.73801,697.47845 c 8.35153,0 15.82555,7.45746 15.82555,15.79047 0,8.33293 -7.47402,15.79046 -15.82555,15.79046 -8.351529,0 -15.825457,-7.45753 -15.825457,-15.79046 0,-8.33301 7.473928,-15.79047 15.825457,-15.79047 m 17.14389,15.79061 c 0,-9.44724 -7.67573,-17.10604 -17.14374,-17.10604 -9.468383,0 -17.143956,7.6588 -17.143956,17.10604 0,9.44739 7.675573,17.10597 17.143956,17.10597 9.46801,0 17.14374,-7.65858 17.14374,-17.10597" /></g><g
           id="g4715"><g
             transform="matrix(0.74472607,0,0,0.74475088,15.700008,177.2614)"
             id="g5301"><g
               style="opacity:0.8"
               id="g5303"
               clip-path="url(#clipPath5179)"><g
                 id="g5305" /><g
                 id="g5307"><g
                   id="g5309"
                   clip-path="url(#clipPath5183)"><path
                     inkscape:connector-curvature="0"
                     id="path5311"
                     style="fill:#f18729;fill-opacity:1;fill-rule:nonzero;stroke:none"
                     d="m 72.58019,719.7132 c 0,11.4725 10.28956,21.7393 21.78742,21.7393 11.49769,0 21.78729,-10.2668 21.78729,-21.7393 0,-11.4725 -10.2896,-21.7394 -21.78729,-21.7394 -11.49786,0 -21.78742,10.2669 -21.78742,21.7394" /></g></g></g></g><path
             inkscape:connector-curvature="0"
             id="path5293"
             style="fill:#35519d;fill-opacity:1;fill-rule:nonzero;stroke:none"
             d="m 85.978165,697.47824 c 8.351493,0 15.825505,7.45752 15.825505,15.79046 0,8.33322 -7.474012,15.79075 -15.825505,15.79075 -8.351574,0 -15.825488,-7.45753 -15.825488,-15.79075 0,-8.33294 7.473914,-15.79046 15.825488,-15.79046 m 17.143855,15.79068 c 0,-9.44732 -7.675658,-17.10612 -17.143761,-17.10612 -9.468365,0 -17.143931,7.6588 -17.143931,17.10612 0,9.44731 7.675566,17.10604 17.143931,17.10604 9.468103,0 17.143761,-7.65873 17.143761,-17.10604" /></g><g
           id="g4681"><g
             transform="matrix(0.74472658,0,0,0.74475516,15.82994,176.95328)"
             id="g5315"><g
               id="g5317"
               clip-path="url(#clipPath5187)"><g
                 id="g5319" /><g
                 id="g5321"><g
                   style="opacity:0.8"
                   id="g5323"
                   clip-path="url(#clipPath5191)"><g
                     id="g5325" /><g
                     id="g5327"><g
                       id="g5329"
                       clip-path="url(#clipPath5195)"><path
                         inkscape:connector-curvature="0"
                         id="path5331"
                         style="fill:#44c1f0;fill-opacity:1;fill-rule:nonzero;stroke:none"
                         d="m 65.52425,736.3141 c 0,11.4722 10.28956,21.7392 21.78742,21.7392 11.49772,0 21.78723,-10.267 21.78723,-21.7392 0,-11.4726 -10.28951,-21.7395 -21.78723,-21.7395 -11.49786,0 -21.78742,10.2669 -21.78742,21.7395" /></g></g></g></g></g></g><path
             inkscape:connector-curvature="0"
             id="path5313"
             style="fill:#35519d;fill-opacity:1;fill-rule:nonzero;stroke:none"
             d="m 80.853019,709.53638 c 8.351472,0 15.825466,7.45752 15.825466,15.79068 0,8.33293 -7.473994,15.79046 -15.825466,15.79046 -8.351573,0 -15.825487,-7.45753 -15.825487,-15.79046 0,-8.33316 7.473914,-15.79068 15.825487,-15.79068 m 17.143808,15.79068 c 0,-9.44732 -7.675653,-17.10605 -17.143713,-17.10605 -9.468365,0 -17.143924,7.65873 -17.143924,17.10605 0,9.44738 7.675559,17.10611 17.143924,17.10611 9.46806,0 17.143713,-7.65873 17.143713,-17.10611" /></g></g><g
         id="g4601"><g
           id="g5343"
           transform="matrix(0.72635895,0,0,0.72635895,17.43345,190.49872)"><g
             clip-path="url(#clipPath5203)"
             id="g5345"><g
               transform="matrix(0.1383917,0,0,0.1380861,140.4921,718.0945)"
               id="g5347"><path
                 d="M 5.116894e-5,-5.197711e-5 C 2.798069,-5.197711e-5 4.997055,0.7968885 6.600096,2.400052 8.198065,3.998795 9.000082,6.1969 9.000082,9.000115 l 0,185.999585 c 0,2.7984 -0.802017,4.9974 -2.399986,6.6001 -1.603041,1.5983 -3.802027,2.4001 -6.60004483106,2.4001 l -26.39996116894,0 c -2.80309,0 -5.00108,-0.6511 -6.60004,-1.9501 -1.60304,-1.3026 -2.80298,-3.0508 -3.60004,-5.2498 L -71.99998,92.09983 c -0.80201,-1.79985 -1.852,-2.75105 -3.14995,-2.85007 -1.30303,-0.10299 -2.25004,0.8491 -2.85006,2.85007 L -113.3999,196.8 c -0.8021,2.199 -2.001,3.9472 -3.6001,5.2498 -1.603,1.299 -3.8019,1.9501 -6.6,1.9501 l -26.4,0 c -2.8029,0 -5.0009,-0.8018 -6.6,-2.4001 -1.6029,-1.6027 -2.3999,-3.8017 -2.3999,-6.6001 l 0,-185.999585 c 0,-2.803215 0.797,-5.00132 2.3999,-6.600063 1.5991,-1.6031635 3.7971,-2.40010397711 6.6,-2.40010397711 l 10.5001,0 c 2.7979,0 4.9969,0.79694047711 6.6,2.40010397711 1.5979,1.598743 2.3999,3.796848 2.3999,6.600063 l 0,138.899685 c 0,2.5973 0.6,3.9003 1.8001,3.9003 1.2,0 2.1989,-0.8999 2.9999,-2.7002 l 30.30002,-85.49986 c 1.997,-5.40001 5.59697,-8.10024 10.80005,-8.10024 l 19.2,0 c 5.198,0 8.79793,2.70023 10.79999,8.10024 l 30.30001,85.49986 c 0.79694,2.1981 1.79996,2.9999 3.00001,2.4001 1.19993,-0.5998 1.79996,-1.7999 1.79996,-3.6002 l 0,-138.899685 c 0,-2.803215 0.79705,-5.00132 2.39999,-6.600063 1.59907,-1.6031635 3.79706,-2.40010397711 6.60004,-2.40010397711 l 10.49998116894,0 z"
                 style="fill:#e41f25;fill-opacity:1;stroke:#3a3286;stroke-width:4;stroke-linecap:butt;stroke-linejoin:miter;stroke-miterlimit:10;stroke-dasharray:none;stroke-opacity:1"
                 id="path5349"
                 inkscape:connector-curvature="0" /></g></g></g><g
           id="g5361"
           transform="matrix(0.72635895,0,0,0.72635895,17.43345,190.49872)"><g
             clip-path="url(#clipPath5211)"
             id="g5363"><g
               transform="matrix(0.1383917,0,0,0.1380861,150.2485,718.0945)"
               id="g5365"><path
                 d="M 1.622233e-6,-5.197711e-5 C 2.798019,-5.197711e-5 4.997005,0.7968885 6.600046,2.400052 8.198016,3.998795 9.000032,6.1969 9.000032,9.000115 l 0,185.999585 c 0,2.7984 -0.802016,4.9974 -2.399986,6.6001 -1.603041,1.5983 -3.802027,2.4001 -6.600044377767,2.4001 l -10.499981622233,0 c -2.80298,0 -5.00097,-0.8018 -6.60004,-2.4001 -1.60294,-1.6027 -2.39999,-3.8017 -2.39999,-6.6001 l 0,-185.999585 c 0,-2.803215 0.79705,-5.00132 2.39999,-6.600063 1.59907,-1.6031635 3.79706,-2.40010397711 6.60004,-2.40010397711 l 10.499981622233,0 z"
                 style="fill:#009847;fill-opacity:1;stroke:#3a3286;stroke-width:4;stroke-linecap:butt;stroke-linejoin:miter;stroke-miterlimit:10;stroke-dasharray:none;stroke-opacity:1"
                 id="path5367"
                 inkscape:connector-curvature="0" /></g></g></g><g
           id="g5379"
           transform="matrix(0.72635895,0,0,0.72635895,17.43345,190.49872)"><g
             clip-path="url(#clipPath5219)"
             id="g5381"><g
               transform="matrix(0.1383917,0,0,0.1380861,167.8929,718.0945)"
               id="g5383"><path
                 d="M 3.733256e-5,-5.197711e-5 C 2.798055,-5.197711e-5 5.04809,0.5480379 6.750033,1.649964 8.447014,2.747028 9.797013,4.897839 10.80003,8.099745 L 70.80002,195.6 c 1.59807,5.5971 -0.50201,8.3999 -6.29993,8.3999 l -14.70004,0 c -5.39999,0 -8.80299,-2.4001 -10.19996,-7.1999 L -7.499933,38.10015 c -0.600024,-2.20341 -1.603042,-3.30002 -3.000007,-3.30002 -1.40105,0 -2.39999,1.09661 -3.00001,3.30002 L -60.59997,196.8 c -1.40105,4.7998 -4.79998,7.1999 -10.19997,7.1999 l -14.70004,0 c -5.80299,0 -7.90297,-2.8028 -6.30003,-8.3999 L -31.79992,8.099745 c 0.99795,-3.201906 2.34795,-5.352717 4.05,-6.449781 1.69698,-1.1019261 3.94691,-1.65001597711 6.75,-1.65001597711 l 20.99995733256,0 z"
                 style="fill:#fe0;fill-opacity:1;stroke:#3a3286;stroke-width:4;stroke-linecap:butt;stroke-linejoin:miter;stroke-miterlimit:10;stroke-dasharray:none;stroke-opacity:1"
                 id="path5385"
                 inkscape:connector-curvature="0" /></g></g></g><g
           id="g5397"
           transform="matrix(0.72635895,0,0,0.72635895,17.43345,190.49872)"><g
             clip-path="url(#clipPath5227)"
             id="g5399"><g
               transform="matrix(0.1383917,0,0,0.1380861,184.0841,718.0945)"
               id="g5401"><path
                 d="M 4.49013e-5,-5.197711e-5 C 2.798063,-5.197711e-5 4.997048,0.7968885 6.60009,2.400052 8.198059,3.998795 9.000075,6.1969 9.000075,9.000115 l 0,185.999585 c 0,2.7984 -0.802016,4.9974 -2.399985,6.6001 -1.603042,1.5983 -3.802027,2.4001 -6.6000450987,2.4001 l -10.4999849013,0 c -2.80298,0 -5.00097,-0.8018 -6.60004,-2.4001 -1.60293,-1.6027 -2.39999,-3.8017 -2.39999,-6.6001 l 0,-185.999585 c 0,-2.803215 0.79706,-5.00132 2.39999,-6.600063 1.59907,-1.6031635 3.79706,-2.40010397711 6.60004,-2.40010397711 l 10.4999849013,0 z"
                 style="fill:#f39415;fill-opacity:1;stroke:#3a3286;stroke-width:4;stroke-linecap:butt;stroke-linejoin:miter;stroke-miterlimit:10;stroke-dasharray:none;stroke-opacity:1"
                 id="path5403"
                 inkscape:connector-curvature="0" /></g></g></g><g
           id="g5415"
           transform="matrix(0.72635895,0,0,0.72635895,17.43345,190.49872)"><g
             clip-path="url(#clipPath5235)"
             id="g5417"><g
               transform="matrix(0.1383917,0,0,0.1380861,210.8208,718.8816)"
               id="g5419"><path
                 d="M 3.665553e-5,-1.118351e-4 C 3.000047,2.596685 3.796992,6.196841 2.39903,10.79991 L -54.89996,190.1999 c -1.00302,3.1962 -2.35302,5.3479 -4.05,6.4498 -1.70095,1.0971 -3.95099,1.65 -6.75,1.65 l -20.99996,0 c -2.80309,0 -5.05301,-0.5529 -6.74999,-1.65 -1.70107,-1.1019 -3.05206,-3.2536 -4.05,-6.4498 L -157.5,2.699673 c -1.6039,-5.601568 0.497,-8.39992 6.3,-8.39992 l 14.7001,0 c 5.399,0 8.7979,2.400103 10.1999,7.20031 l 12.3001,40.799997 c 0.3979,1.20005 1.1479,2.19766 2.2499,2.9999 1.0971,0.79694 2.3491,0.79694 3.75,0 l 87.30009,-51.000207 c 2.19799,-1.200052 4.54693,-1.898867 7.04989,-2.09998 2.499,-0.196694 4.749037,0.501237 6.75011,2.09998 L 3.665553e-5,-1.118351e-4 Z M -38.10094,42.30006 c 0.39902,-1.40205 0.09901,-2.65426 -0.89905,-3.75 -1.00301,-1.10237 -2.60198,-0.95209 -4.79997,0.44996 L -100.2,71.9999 c -1.402,0.79694 -2.401,1.84715 -2.9999,3.15019 -0.6,1.29774 -0.502,3.24787 0.2999,5.84998 L -79.19995,160.2 c 0.59904,2.1981 1.59797,3.3 3.00001,3.3 1.39598,0 2.39999,-1.1019 3.00001,-3.3 L -38.10094,42.30006 Z"
                 style="fill:#00a0e4;fill-opacity:1;stroke:#3a3286;stroke-width:4;stroke-linecap:butt;stroke-linejoin:miter;stroke-miterlimit:10;stroke-dasharray:none;stroke-opacity:1"
                 id="path5421"
                 inkscape:connector-curvature="0" /></g></g></g></g></g></g></svg>