<?xml version="1.0" encoding="UTF-8" standalone="no"?>
<!-- Created with Inkscape (http://www.inkscape.org/) -->

<svg
   width="93.895332mm"
   height="62.868603mm"
   viewBox="0 0 93.895332 62.868603"
   version="1.1"
   id="svg1603"
   inkscape:version="1.1.2 (b8e25be833, 2022-02-05)"
   sodipodi:docname="Logo MMR Colore.svg"
   xmlns:inkscape="http://www.inkscape.org/namespaces/inkscape"
   xmlns:sodipodi="http://sodipodi.sourceforge.net/DTD/sodipodi-0.dtd"
   xmlns="http://www.w3.org/2000/svg"
   xmlns:svg="http://www.w3.org/2000/svg">
  <sodipodi:namedview
     id="namedview1605"
     pagecolor="#ffffff"
     bordercolor="#666666"
     borderopacity="1.0"
     inkscape:pageshadow="2"
     inkscape:pageopacity="0.0"
     inkscape:pagecheckerboard="0"
     inkscape:document-units="mm"
     showgrid="false"
     inkscape:zoom="1.4396184"
     inkscape:cx="155.9441"
     inkscape:cy="86.481251"
     inkscape:window-width="1920"
     inkscape:window-height="1001"
     inkscape:window-x="-9"
     inkscape:window-y="-9"
     inkscape:window-maximized="1"
     inkscape:current-layer="layer1" />
  <defs
     id="defs1600" />
  <g
     inkscape:label="Livello 1"
     inkscape:groupmode="layer"
     id="layer1"
     transform="translate(-4.1451557,-123.31447)">
    <path
       style="fill:#c4c6c4;stroke-width:0.0846667"
       d="m 27.428489,161.25755 c 0,-0.34359 0.428658,-6.51133 0.715866,-10.30023 0.114721,-1.51342 0.252328,-3.43747 0.305793,-4.27567 0.05346,-0.8382 0.131835,-1.58933 0.174156,-1.66918 0.09911,-0.187 0.252466,-0.22602 3.079851,-0.78358 1.303867,-0.25712 3.408892,-0.68956 4.677834,-0.96097 l 2.307166,-0.49348 -1.69e-4,0.3026 c -8.5e-5,0.16644 -0.03725,0.79791 -0.08252,1.40328 -0.09174,1.22663 -0.695028,10.77874 -0.917072,14.52033 l -0.143198,2.413 -0.486833,0.0254 c -0.356039,0.0186 -0.486817,-0.004 -0.486767,-0.0847 8.5e-5,-0.18413 0.41366,-7.06231 0.586507,-9.75488 0.08933,-1.39151 0.131556,-2.6087 0.09392,-2.70709 -0.152811,-0.39941 -0.699929,-0.64348 -1.44249,-0.64348 -0.841455,0 -1.491533,0.39008 -1.795587,1.07744 -0.17354,0.3923 -0.214725,0.77823 -0.530947,4.97529 -0.112274,1.49013 -0.291547,3.7285 -0.398384,4.97416 l -0.194254,2.26483 h -0.445415 -0.445413 l -8.5e-5,-0.40216 c -5e-5,-0.22119 0.07543,-1.50707 0.167735,-2.8575 0.609778,-8.92102 0.601179,-8.69704 0.344395,-8.97037 -0.324384,-0.34529 -1.412608,-0.49873 -2.127875,-0.30004 -0.439441,0.12207 -0.904708,0.6252 -1.052166,1.1378 -0.06771,0.23537 -0.162318,0.96134 -0.210245,1.61328 -0.168988,2.29867 -0.516532,6.70527 -0.637707,8.08566 -0.06745,0.76835 -0.123101,1.46368 -0.123672,1.54517 -8.73e-4,0.12302 -0.08006,0.14816 -0.466707,0.14816 H 27.42854 v -0.28309 z m 13.546666,0.0289 c 0,-0.18602 0.517808,-8.49705 0.677828,-10.87945 0.09383,-1.397 0.244428,-3.74847 0.334653,-5.2255 0.09022,-1.47703 0.203833,-2.75985 0.252466,-2.85072 0.110061,-0.20565 0.292552,-0.26236 2.079387,-0.64616 0.791633,-0.17003 2.940563,-0.66838 4.775401,-1.10743 1.834837,-0.43905 3.345942,-0.7882 3.358007,-0.7759 0.01206,0.0123 -0.06827,1.58448 -0.178536,3.49371 -0.19354,3.35131 -0.26512,4.63129 -0.632103,11.303 -0.09349,1.69968 -0.207737,3.74884 -0.253878,4.55368 -0.04614,0.80484 -0.08389,1.61173 -0.08389,1.79308 v 0.32972 l -0.469537,0.0587 c -0.258247,0.0323 -0.489619,0.0386 -0.514162,0.014 -0.02455,-0.0246 0.01638,-1.21978 0.09092,-2.65607 0.187976,-3.62149 0.53961,-10.08745 0.594468,-10.93125 0.08046,-1.23756 -0.23019,-1.56895 -1.479693,-1.57849 -1.035285,-0.008 -1.605354,0.42189 -1.912276,1.44172 -0.06955,0.23109 -0.177215,1.28857 -0.248673,2.44239 -0.14881,2.40283 -0.40303,6.0116 -0.6354,9.01984 -0.09172,1.18745 -0.166817,2.18758 -0.166875,2.2225 -6.1e-5,0.0349 -0.209659,0.0635 -0.465775,0.0635 H 45.63182 v -0.3124 c 0,-0.17182 0.09455,-1.89585 0.210103,-3.83116 0.573357,-9.60259 0.567436,-9.47463 0.449839,-9.71998 -0.13517,-0.28203 -0.419264,-0.42639 -1.081452,-0.54953 -0.704678,-0.13105 -1.349862,0.0188 -1.733643,0.40254 -0.528521,0.52852 -0.617628,0.94524 -0.809808,3.78725 -0.197098,2.91476 -0.342709,5.0152 -0.560514,8.08545 l -0.151659,2.13783 H 41.46492 c -0.270896,0 -0.489765,-0.0379 -0.489765,-0.0849 z M 54.81048,160.5035 c 0.02742,-0.38417 0.08743,-1.40335 0.133355,-2.26483 0.248481,-4.66119 0.363471,-6.74471 0.51167,-9.271 0.09015,-1.5367 0.239511,-4.1275 0.331919,-5.75733 0.226621,-3.99692 0.228886,-4.02603 0.320075,-4.11722 0.04396,-0.0439 0.857689,-0.20862 1.808289,-0.36593 0.950603,-0.1573 2.408732,-0.4498 3.240289,-0.65 1.489159,-0.35852 1.513834,-0.36149 1.638951,-0.19776 0.258521,0.33833 -0.05571,5.29461 -0.366274,5.77709 -0.207457,0.32229 -0.79747,0.69283 -1.382514,0.86824 -0.30548,0.0916 -1.291288,0.28096 -2.190684,0.42081 -0.899395,0.13986 -1.708147,0.29329 -1.797224,0.34097 -0.352639,0.18872 -0.315791,-0.18501 -0.88469,8.9728 -0.07377,1.18744 -0.189854,2.99498 -0.257971,4.01675 -0.06812,1.02176 -0.123849,2.09808 -0.123849,2.39183 V 161.202 H 55.27622 54.760621 Z"
       id="path3980"
       sodipodi:nodetypes="csssssccsscscsssssscccssssssscscccssssssssssscsscssssssscssssssscsssssssssssssssssscccs" />
    <path
       style="fill:#e15202;stroke-width:0.0846667"
       d="m 13.289156,165.6311 c -0.521463,-0.0866 -1.518369,-0.37205 -1.905,-0.54547 l -0.423334,-0.18987 0.254,-0.0617 c 0.1397,-0.034 0.768805,-0.15789 1.39801,-0.27542 1.882917,-0.35169 3.568423,-1.01214 4.782657,-1.87406 0.711604,-0.50513 1.731497,-1.59975 2.155485,-2.31343 0.86147,-1.45007 1.14555,-2.69081 1.079506,-4.7148 -0.0541,-1.65804 -0.262566,-2.51338 -0.949209,-3.89466 -1.246461,-2.50744 -3.131199,-4.07212 -5.683072,-4.71801 -0.611997,-0.1549 -0.971255,-0.18889 -1.93671,-0.18324 -1.027678,0.006 -1.284168,0.0369 -1.928421,0.23187 -1.4971966,0.45322 -2.9230295,1.32369 -4.2417889,2.5896 l -0.7553804,0.72511 0.055924,-0.35959 c 0.2670718,-1.71728 2.5474884,-4.1305 4.9740683,-5.26373 1.537269,-0.71792 2.614145,-0.9599 4.266265,-0.95867 4.943951,0.004 9.280148,3.54567 10.338223,8.44466 0.320367,1.48333 0.295608,3.4558 -0.06254,4.98237 -1.153701,4.91753 -5.495025,8.4836 -10.257521,8.42577 -0.522224,-0.006 -1.044748,-0.0273 -1.161164,-0.0467 z m 56.260999,-0.0835 c -0.823815,-0.10281 -2.671805,-0.64368 -2.56481,-0.75068 0.01365,-0.0136 0.501068,-0.0868 1.083149,-0.16249 2.895771,-0.37668 4.897352,-1.28744 6.501418,-2.95828 1.418182,-1.47721 2.022972,-3.03896 2.110436,-5.44979 0.07012,-1.93269 -0.1552,-3.01912 -0.968738,-4.67102 -1.163436,-2.36237 -3.146869,-3.96248 -5.801656,-4.68041 -0.959297,-0.25942 -2.201326,-0.25649 -3.196132,0.008 -1.395016,0.37025 -3.140118,1.35291 -4.614334,2.5983 -0.372533,0.31471 -0.749072,0.63281 -0.836752,0.70689 -0.150749,0.12736 -0.156062,0.12317 -0.09767,-0.077 0.254307,-0.87172 1.112674,-2.22043 2.041636,-3.20792 1.372913,-1.45941 3.056451,-2.41849 5.177259,-2.94938 0.801682,-0.20068 1.076309,-0.22828 2.26686,-0.2278 1.107358,4.3e-4 1.489254,0.0342 2.091893,0.18471 1.905929,0.47612 3.728199,1.50034 5.146511,2.89262 2.79981,2.74842 3.88221,7.5264 2.584135,11.407 -0.951584,2.84476 -3.037295,5.25012 -5.565171,6.41807 -1.575901,0.72811 -3.814226,1.11229 -5.358035,0.91963 z m 15.789039,-2.67679 c -0.224888,-0.11893 -0.426603,-0.3095 -0.521843,-0.49302 -0.159528,-0.30741 -1.674796,-6.23864 -1.676979,-6.56423 -0.0011,-0.16308 0.143161,-0.28423 0.338434,-0.28423 0.03949,0 0.337103,0.35243 0.661363,0.78317 2.343335,3.11284 5.522079,4.96136 10.755114,6.25436 0.961509,0.23758 1.76408,0.44678 1.783484,0.46488 0.01939,0.0181 -2.441582,0.0329 -5.468847,0.0329 h -5.504132 z m 3.947793,-5.95024 c -0.03508,-0.0914 0.314885,-0.52329 1.124585,-1.38765 1.489551,-1.5901 1.828614,-2.0193 2.185003,-2.76582 0.604036,-1.26528 0.341968,-2.16546 -1.010354,-3.47045 -1.894528,-1.82821 -5.149228,-4.25843 -7.965043,-5.94732 -3.596307,-2.15703 -6.875449,-3.63205 -11.684952,-5.25613 -1.24559,-0.42061 -2.368217,-0.82199 -2.494725,-0.89196 -0.226406,-0.12523 -0.224038,-0.12642 0.150987,-0.0763 0.764807,0.10222 2.699327,0.46828 3.985459,0.75416 7.21461,1.6036 13.664049,4.52339 19.340208,8.75568 2.166458,1.61536 2.877939,2.31328 3.368987,3.30478 0.248362,0.50147 0.271679,0.61773 0.271679,1.35466 0,0.71595 -0.02714,0.8614 -0.242713,1.30041 -0.506976,1.03249 -1.692724,2.02258 -3.506284,2.92771 -1.028589,0.51337 -3.285279,1.53099 -3.395118,1.53099 -0.04222,0 -0.09969,-0.0597 -0.127719,-0.13276 z m -70.536831,-16.3923 c -0.09313,-0.052 -0.179945,-0.10274 -0.192913,-0.11272 -0.01297,-0.01 0.132959,-0.50919 0.324286,-1.10935 0.969921,-3.04247 1.2918,-4.68694 1.290773,-6.59453 -8.46e-4,-1.56797 -0.123657,-2.47268 -0.476979,-3.51367 -0.781702,-2.30311 -2.559309,-3.53682 -6.045454,-4.19571 -0.640775,-0.12111 -2.784297,-0.39819 -4.76338,-0.61574 L 5.2881557,123.991 5.2620137,123.76488 c -0.024878,-0.21518 -0.00441,-0.22834 0.4233333,-0.27206 0.7206193,-0.0737 5.57198,-0.17922 8.196476,-0.17834 2.448008,8.2e-4 2.8925,0.0367 6.703949,0.54152 1.103469,0.14615 1.650628,0.5807 2.195664,1.74377 0.401315,0.85639 0.638676,1.72286 0.753528,2.7507 0.188642,1.68823 -0.122412,3.10747 -1.234192,5.6312 -0.333702,0.7575 -3.035696,6.27648 -3.214473,6.56575 -0.06311,0.10211 -0.125403,0.0986 -0.336142,-0.0191 z m 17.190854,-0.60088 c -0.488251,-0.27654 -0.806212,-0.7736 -0.866111,-1.35395 -0.130571,-1.26513 1.090168,-2.24002 2.3035,-1.83958 0.768368,0.25358 1.317575,1.15475 1.184344,1.94333 -0.08649,0.51192 -0.474925,1.05225 -0.906717,1.26128 -0.517252,0.2504 -1.261864,0.24559 -1.715016,-0.0111 z m 3.976931,-3.21522 c -0.09327,-0.85325 -0.342678,-1.71642 -0.589439,-2.03994 -0.125955,-0.16514 -0.410395,-0.41664 -0.632089,-0.5589 -0.75502,-0.4845 -1.518068,-0.32766 -3.263665,0.67081 -0.571672,0.32699 -1.098518,0.59453 -1.17077,0.59453 -0.07628,0 -0.154107,-0.10353 -0.1856,-0.24692 -0.215263,-0.98008 1.181547,-2.28406 2.740903,-2.55874 1.100953,-0.19392 2.406364,0.21878 3.182657,1.00619 0.820246,0.832 1.254456,2.16818 0.928084,2.85596 -0.132572,0.27937 -0.713229,0.80618 -0.888589,0.80618 -0.03501,0 -0.08968,-0.23813 -0.121492,-0.52917 z m 2.381467,-2.46983 c -0.123812,-2.31596 -0.797383,-3.6309 -2.23048,-4.35433 -0.792226,-0.39991 -1.468096,-0.54246 -2.395773,-0.50527 -0.690128,0.0277 -0.887031,0.071 -1.38676,0.30542 -0.772843,0.36248 -1.706079,1.29598 -2.464885,2.46558 l -0.571836,0.88141 -0.123227,-0.28874 c -0.198858,-0.46596 -0.116583,-1.37117 0.179612,-1.97617 0.701128,-1.43209 2.754072,-2.58824 4.595876,-2.58824 2.698205,0 4.923645,1.73476 5.489758,4.27933 0.222657,1.00079 0.07658,1.73246 -0.470226,2.35523 -0.541417,0.61664 -0.559279,0.60016 -0.622059,-0.57422 z m 2.872669,-0.91684 c 0.09678,-1.77823 -0.139587,-3.12578 -0.783389,-4.46616 -0.327994,-0.68288 -0.496631,-0.91353 -1.116767,-1.52744 -0.59899,-0.59299 -0.875173,-0.79448 -1.534766,-1.11974 -1.220771,-0.60198 -2.259094,-0.85325 -3.556,-0.86054 -1.220234,-0.007 -1.699942,0.0905 -2.667,0.54147 -1.532985,0.71483 -2.851642,2.08078 -4.066577,4.21243 -0.351133,0.61607 -0.370604,0.63478 -0.426971,0.41019 -0.03249,-0.12942 -0.03803,-0.54215 -0.01233,-0.91718 0.13675,-1.99515 2.191946,-4.11386 4.873501,-5.02412 0.449739,-0.15267 1.141558,-0.32161 1.537375,-0.37543 1.799449,-0.24468 4.012308,0.31921 5.682728,1.44808 2.057924,1.39076 3.382923,3.96449 3.277844,6.36704 -0.03905,0.89296 -0.276471,1.5133 -0.785881,2.05343 -0.453213,0.48055 -0.485241,0.4242 -0.42177,-0.74203 z"
       id="path3978" />
    <path
       style="fill:#0f3052;stroke-width:0.0846667"
       d="m 9.9871557,186.14997 c 0,-0.0373 1.3748953,-4.06239 1.6603723,-4.86082 l 0.219474,-0.61384 h 2.316567 c 2.110374,0 2.356909,0.0151 2.769804,0.16958 0.746241,0.2792 1.078046,0.74421 1.076111,1.5081 -0.0044,1.7438 -1.492811,3.45277 -3.258662,3.74159 -0.456945,0.0747 -4.7836663,0.12483 -4.7836663,0.0554 z m 3.9815543,-1.07509 c 1.249347,-0.15283 1.923698,-0.62126 2.285498,-1.58758 0.335755,-0.89675 0.155093,-1.52471 -0.493095,-1.71394 -0.181086,-0.0529 -0.827217,-0.0805 -1.533396,-0.0655 l -1.220439,0.0258 -0.536394,1.60698 c -0.295018,0.88384 -0.536395,1.65536 -0.536395,1.7145 0,0.13542 1.008623,0.14522 2.034221,0.0198 z m 6.17865,-1.54833 c 0.49649,-1.45865 0.930402,-2.6969 0.964249,-2.75166 0.04511,-0.073 0.789886,-0.0996 2.789371,-0.0996 3.088858,0 3.104175,0.003 3.104175,0.58084 0,0.38805 -0.516666,1.95329 -0.755451,2.28864 -0.235359,0.33052 -0.742546,0.51719 -1.405262,0.51719 -0.301741,0 -0.547908,0.0286 -0.547037,0.0635 8.73e-4,0.0349 0.384986,0.50165 0.85359,1.03717 l 0.852008,0.97366 -0.989749,0.0239 c -0.673077,0.0163 -1.028598,-0.008 -1.111172,-0.0768 -0.06678,-0.0554 -0.414375,-0.51535 -0.772427,-1.02207 -0.381453,-0.53982 -0.725113,-0.93989 -0.829988,-0.96621 -0.09844,-0.0247 -0.327754,-0.0327 -0.509582,-0.0179 l -0.330596,0.0271 -0.233234,0.67733 c -0.128277,0.37253 -0.293354,0.83926 -0.366835,1.03717 l -0.133603,0.35983 h -0.740583 -0.740583 z m 4.876477,-0.60445 c 0.06676,-0.0914 0.186138,-0.37166 0.265292,-0.62277 0.21429,-0.6798 0.161338,-0.70232 -1.583672,-0.67348 l -1.399301,0.0231 -0.227524,0.635 c -0.125137,0.34925 -0.229912,0.68503 -0.232833,0.74618 -0.0042,0.0888 0.302601,0.10584 1.525676,0.0847 1.40671,-0.0244 1.54084,-0.04 1.652362,-0.19272 z m 3.037947,3.10838 c 0.07469,-0.18838 1.822038,-5.30245 1.822038,-5.33267 0,-0.0124 0.3429,-0.0225 0.762,-0.0225 0.4191,0 0.761995,0.01 0.761992,0.0212 -1.3e-5,0.034 -1.597446,4.72682 -1.743648,5.12233 l -0.133016,0.35983 h -0.764056 c -0.693606,0 -0.758639,-0.0137 -0.70531,-0.14816 z m 6.013477,0.0462 c -0.02177,-0.0603 -0.308705,-1.25273 -0.637651,-2.64973 -0.328946,-1.397 -0.61473,-2.58895 -0.635074,-2.64878 -0.02888,-0.0849 0.152596,-0.10348 0.826968,-0.0847 l 0.863963,0.0241 0.391298,1.75773 c 0.35756,1.60618 0.452416,1.93492 0.529066,1.83355 0.148142,-0.19593 2.548572,-2.92601 2.841252,-3.23145 l 0.385373,-0.40216 h 0.701683 c 0.385927,0 0.699206,0.0286 0.69618,0.0635 -0.003,0.0349 -1.079932,1.26365 -2.393122,2.7305 l -2.387621,2.667 -0.571373,0.025 c -0.409581,0.018 -0.582578,-0.006 -0.610942,-0.0847 z m 5.632265,0.0384 c 0.0013,-0.0349 0.413327,-1.26365 0.915601,-2.7305 l 0.913228,-2.667 2.946217,-0.0223 c 2.505917,-0.0189 2.939376,-0.004 2.90044,0.097 -0.02519,0.0656 -0.09263,0.27566 -0.149887,0.46677 l -0.104108,0.34748 h -2.176179 -2.176182 l -0.181084,0.4732 c -0.0996,0.26027 -0.181083,0.52422 -0.181083,0.58658 0,0.13792 0.781904,0.25132 1.297855,0.18822 0.194231,-0.0238 0.531021,-0.019 0.748427,0.0106 l 0.395282,0.0538 -0.146749,0.42333 -0.146751,0.42333 -1.279519,0.0233 -1.279517,0.0233 -0.187905,0.56933 c -0.103346,0.31313 -0.205451,0.61695 -0.226904,0.67516 -0.03057,0.083 0.437608,0.10584 2.165837,0.10584 h 2.204839 l -0.171553,0.508 -0.171556,0.508 h -2.95556 c -1.625558,0 -2.954491,-0.0286 -2.953189,-0.0635 z m 8.294963,-0.0288 c 0,-0.0544 0.408646,-1.29412 0.908102,-2.75496 l 0.908106,-2.65609 h 2.756056 c 3.120078,0 3.132402,0.002 3.132402,0.58084 0,0.38805 -0.516668,1.95329 -0.755451,2.28864 -0.235358,0.33052 -0.742546,0.51719 -1.405263,0.51719 -0.301742,0 -0.547534,0.0286 -0.546209,0.0635 0.0013,0.0349 0.382754,0.50165 0.847619,1.03717 l 0.845206,0.97366 -0.983776,0.0239 c -0.668475,0.0163 -1.022691,-0.008 -1.105199,-0.0768 -0.06678,-0.0554 -0.414374,-0.51535 -0.772427,-1.02207 -0.381453,-0.53982 -0.725112,-0.93989 -0.829987,-0.96621 -0.09844,-0.0247 -0.327756,-0.0327 -0.509583,-0.0179 l -0.330597,0.0271 -0.347411,1.016 -0.347411,1.016 -0.732089,0.0245 c -0.515739,0.0172 -0.732088,-0.005 -0.732088,-0.0744 z m 5.723347,-3.16426 c 0.06676,-0.0914 0.18614,-0.37166 0.265292,-0.62277 0.214289,-0.6798 0.161338,-0.70232 -1.583671,-0.67348 l -1.399302,0.0231 -0.227523,0.635 c -0.125137,0.34925 -0.229912,0.68503 -0.232833,0.74618 -0.0042,0.0888 0.302601,0.10584 1.525677,0.0847 1.406708,-0.0244 1.540838,-0.04 1.65236,-0.19272 z m 3.078914,3.02371 c 0.03838,-0.12806 0.363805,-1.09008 0.723172,-2.13783 0.359371,-1.04775 0.747856,-2.18123 0.863301,-2.51883 l 0.2099,-0.61384 h 0.75435 c 0.414891,0 0.754349,0.011 0.754349,0.0245 0,0.0134 -0.32385,0.96843 -0.719667,2.1222 -0.395817,1.15377 -0.719667,2.15242 -0.719667,2.21923 0,0.10213 0.322609,0.12147 2.026449,0.12147 h 2.026447 l -0.171553,0.508 -0.171556,0.508 h -2.822649 -2.822649 z m 7.453738,0.14559 c 0,-0.1132 1.683361,-5.06992 1.788557,-5.26648 0.07417,-0.13858 0.294738,-0.14961 2.992932,-0.14961 h 2.912867 l -0.151016,0.4445 -0.151019,0.4445 -2.185554,0.0423 -2.185556,0.0423 -0.192709,0.5715 -0.192709,0.5715 h 1.222105 c 1.362628,0 1.308788,-0.0306 1.087882,0.61775 l -0.134221,0.39392 -1.276199,0.0233 -1.276199,0.0233 -0.198247,0.58799 c -0.109037,0.3234 -0.198247,0.61867 -0.198247,0.65617 0,0.0375 0.97568,0.0682 2.168178,0.0682 h 2.168179 l -0.05726,0.22815 c -0.03149,0.12548 -0.109879,0.35408 -0.174192,0.508 l -0.116929,0.27985 H 67.18381 c -1.951503,0 -2.925321,-0.029 -2.925321,-0.0872 z m 8.739749,0.0295 c -0.105924,-0.0216 -0.253185,-0.13176 -0.32725,-0.2448 -0.118973,-0.18157 -0.121195,-0.26161 -0.01908,-0.68679 l 0.115578,-0.48128 0.465667,-0.10779 c 0.256117,-0.0593 0.57209,-0.1094 0.702164,-0.11137 0.221785,-0.003 0.234953,0.0162 0.211667,0.31391 l -0.02482,0.3175 h 1.777651 1.777653 l 0.185814,-0.508 c 0.102198,-0.2794 0.188082,-0.55562 0.19085,-0.61383 0.0039,-0.0816 -0.417267,-0.10594 -1.836468,-0.10631 -1.920118,-5.3e-4 -2.415564,-0.0661 -2.561817,-0.33941 -0.12863,-0.24034 0.106904,-1.25983 0.445629,-1.92889 0.473991,-0.93624 0.358976,-0.90268 3.180557,-0.92812 2.782649,-0.0251 2.835923,-0.0152 2.876706,0.53681 0.04457,0.60317 -0.07532,0.7699 -0.634323,0.88218 -0.270372,0.0543 -0.582573,0.12005 -0.69378,0.1461 -0.191757,0.0449 -0.199231,0.0316 -0.144793,-0.25862 0.07516,-0.40061 0.04158,-0.40777 -1.769679,-0.37739 l -1.439333,0.0242 -0.146786,0.30002 c -0.08073,0.165 -0.17122,0.42218 -0.201083,0.5715 l -0.0543,0.27148 h 1.918303 c 2.334742,0 2.50553,0.0419 2.50553,0.6148 0,0.41757 -0.408405,1.70173 -0.681995,2.14441 -0.351427,0.56862 -0.431723,0.58375 -3.170338,0.59707 -1.350433,0.007 -2.541998,-0.006 -2.647918,-0.0273 z m 8.78864,-0.0365 c -0.115101,-0.0459 -0.238342,-0.12925 -0.27387,-0.18514 -0.102603,-0.16141 -0.07759,-0.63248 0.04977,-0.93729 0.104164,-0.24931 0.170511,-0.29067 0.606788,-0.37828 0.269409,-0.0541 0.581297,-0.0984 0.693084,-0.0984 0.172328,0 0.194013,0.029 0.142525,0.1905 -0.146984,0.46109 -0.212468,0.44274 1.667386,0.46735 1.332069,0.0174 1.765051,-0.003 1.829501,-0.0847 0.09919,-0.12632 0.362429,-0.8918 0.362429,-1.05393 0,-0.0893 -0.381003,-0.11289 -1.883833,-0.1167 -1.237226,-0.003 -1.985547,-0.0398 -2.180167,-0.10681 -0.291026,-0.10021 -0.296264,-0.11036 -0.292576,-0.56673 0.0076,-0.93925 0.561798,-2.10225 1.139243,-2.39072 0.260765,-0.13027 0.578797,-0.14805 2.64968,-0.14816 l 2.35335,-1.7e-4 0.217678,0.21767 c 0.189306,0.18931 0.210362,0.2638 0.16156,0.5715 -0.03086,0.19461 -0.101973,0.40001 -0.158023,0.45646 -0.107704,0.10847 -1.326869,0.39396 -1.394322,0.32651 -0.02172,-0.0217 2e-6,-0.15282 0.04828,-0.29132 0.07066,-0.2027 0.06296,-0.26135 -0.03947,-0.30066 -0.06999,-0.0268 -0.807691,-0.0488 -1.639335,-0.0488 -1.117714,0 -1.52944,0.0276 -1.578647,0.10583 -0.07106,0.11297 -0.359367,0.9134 -0.363992,1.01055 -0.0016,0.0319 0.934108,0.07 2.079177,0.0847 l 2.081941,0.0266 0.170468,0.21068 c 0.221676,0.27397 0.172164,0.65363 -0.222673,1.70748 -0.327232,0.87339 -0.592021,1.18846 -1.122665,1.33581 -0.411339,0.11423 -4.815734,0.11087 -5.103291,-0.004 z M 14.113018,173.89964 c -0.635733,-0.0762 -1.012718,-0.25807 -1.280679,-0.61801 -0.142328,-0.19118 -0.178183,-0.36155 -0.178183,-0.84666 0,-0.51356 0.03682,-0.66996 0.238494,-1.01306 0.280341,-0.47693 0.745413,-0.83728 1.355119,-1.04999 0.599943,-0.2093 2.570537,-0.20967 3.034064,-5.3e-4 1.402241,0.63257 0.821368,2.89353 -0.872942,3.39779 -0.505821,0.15055 -1.60626,0.2131 -2.295873,0.1305 z m 1.031888,-0.45975 c 0.484082,-0.25033 1.022916,-1.41624 1.022916,-2.21335 0,-0.51617 -0.06358,-0.62656 -0.360835,-0.62656 -0.554304,0 -1.19013,1.03177 -1.303347,2.11497 -0.04436,0.42442 -0.02755,0.5113 0.129262,0.66811 0.214218,0.21422 0.20881,0.21362 0.512004,0.0568 z m 24.273949,0.45342 c -0.61254,-0.0894 -1.044575,-0.29675 -1.274569,-0.61168 -0.276363,-0.37841 -0.248608,-1.32843 0.05384,-1.8429 0.27106,-0.46108 0.688102,-0.79781 1.284189,-1.03688 0.361077,-0.14482 0.627671,-0.175 1.577507,-0.17857 1.038516,-0.004 1.180518,0.0142 1.55344,0.19776 0.519502,0.25575 0.731827,0.59244 0.732242,1.16114 7.94e-4,1.25762 -0.853948,2.10852 -2.328015,2.31721 -0.678194,0.096 -0.905151,0.0951 -1.598634,-0.006 z m 1.105122,-0.49434 c 0.501822,-0.30599 0.959178,-1.3841 0.959178,-2.26104 0,-0.34794 -0.03466,-0.46587 -0.156009,-0.53082 -0.242988,-0.13004 -0.692372,0.14376 -1.005877,0.61286 -0.31519,0.47162 -0.436239,0.8353 -0.505658,1.51921 -0.04036,0.39765 -0.02135,0.51936 0.102449,0.65617 0.188886,0.20872 0.268775,0.20919 0.605917,0.004 z m 52.752699,0.49871 c -1.161188,-0.28506 -1.607625,-0.98947 -1.299295,-2.0501 0.141631,-0.48719 0.601057,-1.0048 1.138563,-1.28276 0.427373,-0.221 1.283385,-0.38568 2.003544,-0.38545 0.664295,2.5e-4 1.787678,0.18476 1.918004,0.31508 0.03631,0.0363 -0.0016,0.29399 -0.08413,0.57261 l -0.150148,0.50659 -0.69369,0.0246 -0.693701,0.0246 v -0.46611 c 0,-0.37421 -0.0323,-0.4834 -0.163787,-0.55377 -0.362517,-0.19402 -0.97757,0.35014 -1.235356,1.09295 -0.189973,0.5474 -0.262152,1.49031 -0.126592,1.65365 0.138826,0.16728 0.589229,0.16563 0.830045,-0.003 0.164542,-0.11525 0.44169,-0.53439 0.44169,-0.66799 0,-0.0256 -0.136001,-0.0465 -0.302225,-0.0465 -0.264983,0 -0.298882,-0.0235 -0.275167,-0.1905 0.02603,-0.18322 0.06406,-0.19142 0.995553,-0.21459 0.532662,-0.0132 1.016431,-0.006 1.075036,0.0168 0.08165,0.0313 0.06057,0.20802 -0.09024,0.75615 -0.10823,0.39339 -0.222776,0.75731 -0.254534,0.8087 -0.03177,0.0514 -0.260408,0.0935 -0.508093,0.0935 -0.360468,0 -0.473532,-0.0348 -0.566504,-0.17421 l -0.116163,-0.17421 -0.381,0.16721 c -0.477401,0.20952 -1.047792,0.27854 -1.461812,0.17691 z M 5.4953906,172.10706 6.064554,170.30365 h 1.0933857 1.0933855 l 0.1270821,0.93133 c 0.07536,0.55229 0.1615405,0.91472 0.2117484,0.89052 0.046567,-0.0224 0.4083711,-0.45107 0.8040097,-0.9525 l 0.7193436,-0.91169 h 1.079823 c 0.593903,0 1.079824,0.0263 1.079824,0.0584 0,0.14189 -1.044577,3.38151 -1.120945,3.47646 -0.05829,0.0725 -0.363833,0.10583 -0.969461,0.10583 -0.803361,0 -0.8801135,-0.0136 -0.8381955,-0.14817 0.399457,-1.28266 0.6514668,-2.15719 0.6283084,-2.18035 -0.015891,-0.0159 -0.4478465,0.492 -0.9599036,1.12865 l -0.9310126,1.15754 H 7.4893845 6.8968224 l -0.183677,-1.18534 c -0.1010225,-0.65193 -0.1907034,-1.20438 -0.1992911,-1.22766 -0.00859,-0.0233 -0.1949415,0.51011 -0.4141193,1.18533 l -0.3985054,1.22767 -0.3875012,0.0254 -0.3875012,0.0254 z m 12.8737654,1.74401 c 0,-0.0478 0.523921,-1.74196 0.985787,-3.18759 l 0.128488,-0.40217 h 1.581255 c 0.86969,0 1.710928,0.0372 1.869419,0.0827 0.933123,0.26761 0.910567,1.2963 -0.03635,1.65793 -0.208962,0.0798 -0.37993,0.18302 -0.37993,0.22938 0,0.0464 0.1905,0.41718 0.423333,0.82404 0.232834,0.40687 0.423334,0.76511 0.423334,0.79608 0,0.031 -0.409575,0.0455 -0.910167,0.0323 l -0.910166,-0.024 -0.272111,-0.55033 c -0.14966,-0.30268 -0.335758,-0.66463 -0.413551,-0.80433 l -0.14144,-0.254 -0.270744,0.80433 -0.270745,0.80433 -0.903204,0.024 c -0.496763,0.0132 -0.903205,-10e-4 -0.903205,-0.0326 z m 3.084782,-1.97898 c 0.428049,-0.16274 0.716665,-0.94861 0.434414,-1.18285 -0.06681,-0.0555 -0.244496,-0.0887 -0.394862,-0.0739 -0.256686,0.0253 -0.285482,0.0629 -0.471197,0.61494 -0.108792,0.32339 -0.197804,0.61867 -0.197804,0.65616 0,0.094 0.366486,0.0856 0.629449,-0.0144 z m 2.503217,1.96334 c 0,-0.0366 0.243424,-0.84622 0.540941,-1.79916 l 0.54094,-1.73262 1.787393,-0.0229 c 0.983067,-0.0126 1.787393,-5.3e-4 1.787393,0.0267 0,0.0273 -0.03944,0.12328 -0.08764,0.21335 -0.07758,0.14495 -0.18378,0.16377 -0.92453,0.16377 h -0.836883 l -0.146136,0.4445 c -0.08038,0.24447 -0.163714,0.49212 -0.185197,0.55033 -0.02934,0.0795 0.142299,0.10583 0.689666,0.10583 0.400799,0 0.728725,0.0308 0.728725,0.0685 0,0.0377 -0.04763,0.13178 -0.105833,0.20914 -0.08009,0.10645 -0.270548,0.14642 -0.783081,0.16435 l -0.677246,0.0237 -0.185554,0.508 c -0.102054,0.2794 -0.187818,0.55563 -0.190587,0.61383 -0.0037,0.078 0.219873,0.10584 0.850693,0.10584 0.745525,0 0.849107,0.0172 0.804333,0.13392 -0.02827,0.0737 -0.05139,0.16891 -0.05139,0.21167 0,0.0447 -0.754691,0.0777 -1.778,0.0777 -0.9779,0 -1.778,-0.0299 -1.778,-0.0665 z m 6.649342,-1.09327 c 0.203404,-0.64268 0.459034,-1.45426 0.56806,-1.80351 l 0.198234,-0.635 h 1.095965 1.095965 l 0.10513,0.84453 c 0.05782,0.4645 0.125912,0.8987 0.151312,0.96489 0.02992,0.078 0.319834,-0.22698 0.823066,-0.8657 l 0.776883,-0.98606 H 36.5048 c 0.59603,0 1.083689,0.0307 1.083689,0.0682 0,0.0375 -0.07414,0.2947 -0.164748,0.5715 -0.09061,0.2768 -0.34027,1.06525 -0.554795,1.75211 l -0.390046,1.24883 h -0.932577 c -0.848018,0 -0.9287,-0.0134 -0.889812,-0.14817 0.02352,-0.0815 0.181613,-0.59906 0.351314,-1.15016 0.169704,-0.5511 0.295899,-1.01464 0.28044,-1.03007 -0.01545,-0.0154 -0.459407,0.50381 -0.98655,1.1539 l -0.958439,1.18197 -0.565561,-0.0249 -0.56556,-0.0249 -0.169333,-1.11525 c -0.09313,-0.61338 -0.195421,-1.14112 -0.227309,-1.17275 -0.03188,-0.0316 -0.224475,0.47024 -0.427974,1.11525 l -0.370001,1.17275 -0.390435,0.0255 -0.390436,0.0255 z m 13.077992,1.11461 c 0,-0.0525 0.505896,-1.69124 0.985787,-3.19329 l 0.128487,-0.40217 1.623031,8e-4 c 1.527661,7.9e-4 1.64828,0.0126 2.052793,0.20094 0.496351,0.23112 0.713235,0.58261 0.713235,1.15587 0,0.90808 -0.555871,1.66798 -1.486673,2.03232 -0.454983,0.1781 -0.670687,0.20028 -2.259827,0.23236 -0.966258,0.0195 -1.756833,0.007 -1.756833,-0.0269 z m 2.967651,-0.71111 c 0.348104,-0.36593 0.642154,-1.11707 0.731012,-1.86734 0.04475,-0.37787 0.0283,-0.46775 -0.103227,-0.56393 -0.175102,-0.12804 -0.681771,-0.15487 -0.752846,-0.0399 -0.03804,0.0616 -0.236331,0.67391 -0.860044,2.65596 -0.03936,0.12508 0.0091,0.14817 0.310857,0.14817 0.305908,0 0.403182,-0.048 0.674248,-0.33299 z m 2.876005,0.65049 c 7.94e-4,-0.0582 0.240839,-0.86784 0.53317,-1.79917 l 0.53151,-1.69333 1.793058,-0.0228 1.793057,-0.0228 -0.07081,0.19218 c -0.06585,0.17874 -0.132053,0.19514 -0.946938,0.23451 l -0.876134,0.0423 -0.107346,0.37169 c -0.05904,0.20443 -0.129837,0.44256 -0.157324,0.52917 -0.04593,0.14472 0.0058,0.15747 0.638945,0.15747 0.666017,0 0.688027,0.006 0.661873,0.1905 -0.02537,0.1787 -0.07278,0.19202 -0.765275,0.21493 l -0.738217,0.0244 -0.17195,0.57737 c -0.09457,0.31756 -0.171947,0.60051 -0.171947,0.62878 0,0.0283 0.375922,0.0623 0.835385,0.0755 0.826743,0.0239 0.834654,0.0261 0.76473,0.21463 -0.07013,0.18908 -0.08365,0.1905 -1.809054,0.1905 -1.335156,0 -1.738011,-0.0245 -1.736738,-0.10583 z m 4.491294,-0.0375 c 0.0031,-0.0842 0.24248,-0.89598 0.531982,-1.80403 l 0.526364,-1.651 1.026483,-0.0237 1.026483,-0.0237 0.399431,1.20905 c 0.423129,1.28079 0.50338,1.44735 0.576426,1.19639 0.02508,-0.0862 0.202912,-0.66151 0.395174,-1.27852 l 0.349565,-1.12183 h 0.376851 c 0.451245,0 0.475671,-0.19571 -0.252518,2.02331 l -0.516858,1.57502 -0.93993,0.0238 c -0.687496,0.0174 -0.962533,-0.005 -1.024096,-0.0847 -0.04629,-0.0597 -0.266486,-0.63237 -0.489323,-1.27266 -0.222835,-0.64029 -0.429205,-1.16417 -0.458602,-1.16417 -0.0294,0 -0.225944,0.56198 -0.436772,1.24884 l -0.38332,1.24883 -0.356479,0.026 c -0.298579,0.0218 -0.355565,0.001 -0.350861,-0.127 z m 5.320043,-0.005 c 0.04525,-0.0815 0.593995,-0.89111 1.219422,-1.79916 l 1.13714,-1.651 1.024959,-0.0238 c 1.006607,-0.0233 1.025741,-0.0203 1.068652,0.16933 0.157662,0.69676 0.528182,3.33784 0.475906,3.39226 -0.03514,0.0366 -0.479727,0.0556 -0.987978,0.0423 l -0.924095,-0.0242 -0.0232,-0.254 c -0.06009,-0.65743 -0.02954,-0.635 -0.864724,-0.635 h -0.757716 l -0.344009,0.46567 c -0.328438,0.44459 -0.361267,0.46566 -0.725316,0.46566 -0.338052,0 -0.371975,-0.0168 -0.299024,-0.14816 z m 2.762414,-1.86266 c -0.0329,-0.36089 -0.08805,-0.68589 -0.12255,-0.7222 -0.0345,-0.0363 -0.279008,0.25895 -0.543348,0.65616 l -0.480616,0.7222 h 0.603168 0.603166 z m 4.529635,1.905 c 0.0013,-0.0582 0.242432,-0.86784 0.535837,-1.79917 l 0.533461,-1.69333 1.601996,-0.0238 c 1.759371,-0.0261 2.19969,0.0553 2.461673,0.45511 0.290404,0.44321 -0.168344,1.20415 -0.811054,1.34531 -0.143158,0.0315 -0.260289,0.079 -0.260289,0.10562 0,0.0267 0.165978,0.33795 0.36884,0.69178 0.202864,0.35382 0.413755,0.72904 0.468648,0.83382 l 0.0998,0.1905 H 70.69678 69.763115 l -0.3831,-0.81981 c -0.218734,-0.46808 -0.413568,-0.78593 -0.45411,-0.74084 -0.03905,0.0434 -0.172979,0.41236 -0.297614,0.81981 l -0.226608,0.74084 h -0.886264 c -0.653833,0 -0.88564,-0.0278 -0.883888,-0.10584 z m 3.082785,-1.93922 c 0.416234,-0.18965 0.675859,-0.8705 0.426884,-1.11948 -0.162611,-0.16261 -0.594551,-0.18237 -0.691338,-0.0316 -0.08592,0.13382 -0.362463,1.0019 -0.364128,1.143 -0.0016,0.13274 0.345253,0.13721 0.628582,0.008 z m 2.132716,1.93922 c 0.03476,-0.0582 0.591748,-0.87736 1.237745,-1.82034 l 1.17454,-1.7145 h 1.009307 c 0.977119,0 1.010718,0.006 1.053592,0.1905 0.04381,0.18845 0.551605,3.33014 0.551605,3.41274 0,0.0235 -0.447675,0.0321 -0.994833,0.0189 l -0.994833,-0.0239 -0.02323,-0.254 c -0.06009,-0.65744 -0.02954,-0.635 -0.864724,-0.635 h -0.757716 l -0.344009,0.46566 c -0.328904,0.44522 -0.360839,0.46567 -0.727334,0.46567 -0.283925,0 -0.366938,-0.0274 -0.320122,-0.10583 z m 2.785531,-1.905 c -0.0329,-0.36089 -0.08861,-0.68644 -0.123794,-0.72345 -0.0575,-0.0605 -0.936947,1.17947 -0.936947,1.32102 0,0.0322 0.252126,0.0586 0.560281,0.0586 h 0.560279 z m 3.935518,1.84965 c -0.787368,-0.27983 -1.10454,-0.86129 -0.925412,-1.69653 0.133363,-0.62185 0.522914,-1.09103 1.18224,-1.42391 0.902769,-0.45579 2.141834,-0.57445 3.281532,-0.31426 0.83072,0.18965 0.825508,0.18338 0.63977,0.77024 l -0.15739,0.49731 -0.740833,0.0245 -0.740833,0.0245 v -0.46598 c 0,-0.37407 -0.03231,-0.48327 -0.163791,-0.55364 -0.576053,-0.3083 -1.444876,1.02995 -1.444876,2.22554 0,0.50742 0.09809,0.65016 0.446778,0.65016 0.268846,0 0.601745,-0.29485 0.840452,-0.74439 l 0.144227,-0.27161 h 0.723606 c 0.49325,0 0.723604,0.0313 0.723604,0.0984 0,0.0541 -0.06368,0.30041 -0.141513,0.54732 -0.130611,0.41435 -0.17137,0.45983 -0.529166,0.59045 -0.26656,0.0973 -0.744704,0.15178 -1.530655,0.17434 -0.973783,0.028 -1.211802,0.008 -1.60774,-0.13235 z m 4.440137,-0.0687 c 0.02923,-0.12968 0.27487,-0.94063 0.545872,-1.80211 l 0.492731,-1.56633 0.900835,-0.024 c 0.527005,-0.014 0.900832,0.009 0.900832,0.0561 0,0.0441 -0.243959,0.85498 -0.542131,1.80203 l -0.542131,1.7219 -0.904574,0.0241 -0.904576,0.0241 z m 2.95884,0.0817 c 0.02492,-0.0815 0.275143,-0.88474 0.556041,-1.78501 0.280897,-0.90027 0.510722,-1.65275 0.510722,-1.67217 0,-0.0194 0.468149,-0.0353 1.040331,-0.0353 h 1.040326 l 0.41701,1.27 c 0.229354,0.6985 0.437481,1.26971 0.4625,1.26936 0.02503,-2.6e-4 0.216942,-0.55765 0.426474,-1.23844 0.209542,-0.68078 0.424613,-1.25453 0.477935,-1.275 0.05332,-0.0204 0.229447,-0.0251 0.39138,-0.0104 l 0.294438,0.0268 -0.564483,1.778 -0.564472,1.778 h -1.001081 -1.001077 l -0.395221,-1.10066 c -0.559724,-1.5588 -0.515406,-1.46136 -0.596885,-1.31234 -0.03819,0.0699 -0.21233,0.60325 -0.386977,1.18534 -0.174648,0.58208 -0.355054,1.10596 -0.400904,1.16416 -0.04585,0.0582 -0.233664,0.10584 -0.417367,0.10584 -0.278919,0 -0.32653,-0.0245 -0.28869,-0.14817 z M 26.971155,161.85815 c -0.10102,-0.15701 -0.109264,-0.36914 -0.04689,-1.2065 0.04163,-0.5588 0.173179,-2.44475 0.292339,-4.191 0.11916,-1.74625 0.290499,-4.1275 0.380753,-5.29167 0.09025,-1.16416 0.224941,-3.00948 0.299305,-4.10071 0.07996,-1.17333 0.182187,-2.09648 0.250179,-2.25921 0.06323,-0.15134 0.2254,-0.33227 0.360368,-0.40206 0.134968,-0.0698 1.061895,-0.28447 2.059838,-0.47705 0.99794,-0.19259 3.23632,-0.65236 4.974178,-1.02173 1.737857,-0.36936 3.271382,-0.67157 3.407833,-0.67157 h 0.248094 l 8.5e-5,0.6985 c 5e-5,0.38417 -0.07446,1.8034 -0.165574,3.15383 -0.09112,1.35044 -0.224649,3.40784 -0.29674,4.572 -0.07209,1.16417 -0.205471,3.27872 -0.296395,4.699 -0.09092,1.42028 -0.212563,3.41849 -0.270311,4.44046 -0.128484,2.27394 -0.06636,2.16354 -1.217388,2.16354 -0.674862,0 -0.81585,-0.0231 -0.861102,-0.14101 -0.06273,-0.16347 0.05255,-2.45568 0.401677,-7.98699 0.136673,-2.16535 0.248931,-4.152 0.249457,-4.41477 0.0011,-0.54558 -0.01394,-0.55817 -0.760396,-0.63619 -0.374312,-0.0391 -0.562806,-0.013 -0.862291,0.11947 -0.566782,0.25072 -0.746022,0.67476 -0.843071,1.99455 -0.529315,7.19821 -0.84533,10.74785 -0.975661,10.95911 -0.107654,0.17449 -0.180867,0.1905 -0.871527,0.1905 -0.572566,0 -0.786016,-0.032 -0.887048,-0.13305 -0.07318,-0.0732 -0.133048,-0.16465 -0.133048,-0.20328 0,-0.0386 0.09384,-1.43607 0.208537,-3.10545 0.624139,-9.08432 0.618426,-8.96118 0.419258,-9.0376 -0.255598,-0.0981 -1.037814,-0.1573 -1.336844,-0.1012 -0.394937,0.0741 -0.76626,0.45655 -0.884965,0.91151 -0.05253,0.20134 -0.174625,1.45192 -0.271319,2.77907 -0.09669,1.32715 -0.287817,3.76555 -0.42472,5.41866 -0.136903,1.65312 -0.249146,3.05058 -0.24943,3.10546 -0.0014,0.27152 -0.264625,0.36588 -1.020613,0.36588 -0.689165,0 -0.76454,-0.0164 -0.876571,-0.1905 z m 1.388667,-0.36011 c 0,-0.0234 0.07531,-0.90926 0.167349,-1.9685 0.09204,-1.05924 0.281538,-3.44989 0.421102,-5.31256 0.301801,-4.0279 0.291372,-3.94644 0.570972,-4.46016 0.391494,-0.7193 1.28611,-0.99539 2.396577,-0.73961 0.20955,0.0483 0.466725,0.16828 0.5715,0.26669 0.241901,0.22721 0.243247,0.43426 0.02384,3.66308 -0.09177,1.35044 -0.244247,3.65548 -0.338844,5.12233 -0.09459,1.46685 -0.192315,2.84798 -0.217157,3.06917 l -0.04516,0.40217 h 0.496131 0.49613 l 0.14559,-1.67217 c 0.228314,-2.62232 0.46944,-5.62324 0.641369,-7.98214 0.110577,-1.51717 0.199662,-2.26604 0.297397,-2.5 0.159668,-0.38223 0.493543,-0.76116 0.821756,-0.93265 0.601903,-0.3145 1.909752,-0.21044 2.277694,0.18122 l 0.19756,0.21029 -0.102288,1.92389 c -0.05626,1.05814 -0.194541,3.40979 -0.307295,5.22589 -0.112753,1.8161 -0.231889,3.78778 -0.264743,4.3815 l -0.05973,1.0795 h 0.47979 c 0.308866,0 0.492159,-0.0377 0.514514,-0.10583 0.0191,-0.0582 0.07635,-0.84879 0.127219,-1.75684 0.05087,-0.90805 0.165852,-2.794 0.255514,-4.191 0.08966,-1.39699 0.22293,-3.51154 0.296148,-4.69899 0.07322,-1.18745 0.210629,-3.32702 0.305353,-4.7546 0.09472,-1.42758 0.160186,-2.72494 0.145476,-2.88303 l -0.02675,-0.28743 -1.693333,0.36301 c -0.931333,0.19965 -3.116808,0.65022 -4.85661,1.00127 -1.739801,0.35104 -3.230743,0.67437 -3.313205,0.7185 -0.08246,0.0441 -0.172845,0.13996 -0.200853,0.21294 -0.02801,0.073 -0.109542,1.01702 -0.181187,2.09785 -0.07165,1.08084 -0.185764,2.65095 -0.253591,3.48915 -0.190799,2.35789 -0.719559,10.07317 -0.719559,10.49929 v 0.38038 h 0.465666 c 0.256117,0 0.465667,-0.0192 0.465667,-0.0426 z m 12.2555,0.37449 c -0.112445,-0.0655 -0.148167,-0.1976 -0.148167,-0.54797 0,-0.48113 0.408602,-7.28728 0.640176,-10.66358 0.07346,-1.07103 0.221027,-3.37755 0.327927,-5.12559 0.209648,-3.42825 0.241006,-3.59888 0.705498,-3.83866 0.12727,-0.0657 0.879099,-0.25976 1.670733,-0.43124 0.791633,-0.17149 3.101377,-0.70893 5.132765,-1.19431 2.031386,-0.48539 3.754687,-0.88253 3.829553,-0.88253 0.07487,0 0.159898,0.0947 0.188955,0.21051 0.02906,0.11577 -0.04705,1.9541 -0.16913,4.08516 -0.122081,2.13106 -0.279178,4.90336 -0.349104,6.16066 -0.06992,1.2573 -0.182886,3.2766 -0.251024,4.48734 -0.06813,1.21073 -0.183488,3.34433 -0.256336,4.74133 -0.07285,1.397 -0.153014,2.60885 -0.178144,2.69301 -0.06827,0.22863 -0.386024,0.31265 -1.18237,0.31265 -0.603308,0 -0.725776,-0.0234 -0.773409,-0.14748 -0.06056,-0.15783 0.102317,-3.70154 0.477719,-10.39351 0.128,-2.28177 0.203245,-4.23125 0.167214,-4.33218 -0.09234,-0.25865 -0.849823,-0.4155 -1.352656,-0.2801 -0.828458,0.22308 -1.051256,0.7819 -1.176536,2.95098 -0.12672,2.194 -0.609841,8.994 -0.811316,11.4194 -0.06527,0.78576 -0.165407,0.86756 -1.061974,0.86756 -0.494585,0 -0.691094,-0.0353 -0.825447,-0.14817 l -0.176334,-0.14816 0.205322,-3.38667 c 0.112927,-1.86267 0.283128,-4.77731 0.378225,-6.477 0.0951,-1.69968 0.18906,-3.28727 0.208809,-3.52798 0.04594,-0.56003 -0.05064,-0.68257 -0.622594,-0.78993 -0.509783,-0.0957 -0.961533,-0.0409 -1.258901,0.15262 -0.202546,0.13183 -0.462814,0.57982 -0.551047,0.94851 -0.02793,0.11672 -0.186566,2.21222 -0.352521,4.65667 -0.555267,8.17896 -0.581067,8.47002 -0.762508,8.60269 -0.190748,0.13948 -1.445072,0.15895 -1.673378,0.026 z m 1.330656,-0.52238 c 0.03671,-0.1137 0.361034,-4.58271 0.637476,-8.78417 0.2521,-3.83151 0.292918,-4.17969 0.552074,-4.70938 0.316577,-0.64706 0.788557,-0.91625 1.606524,-0.91625 0.376364,0 0.748752,0.0578 1.006245,0.15611 0.597868,0.22833 0.647107,0.39715 0.558128,1.91358 -0.03962,0.67519 -0.153263,2.63731 -0.252548,4.36028 -0.09928,1.72296 -0.24733,4.21851 -0.328996,5.54566 -0.08166,1.32715 -0.133763,2.44158 -0.115774,2.4765 0.02875,0.0558 0.951249,0.0967 0.955834,0.0423 0.15871,-1.88027 0.721918,-9.73202 0.845463,-11.78669 0.05029,-0.83647 0.13004,-1.69372 0.177207,-1.905 0.262911,-1.17761 1.167315,-1.74869 2.406576,-1.5196 0.613802,0.11347 0.86333,0.27435 0.958144,0.61773 0.04691,0.16991 0.0027,1.54864 -0.119846,3.7378 -0.267562,4.7795 -0.543997,10.10521 -0.543997,10.48049 v 0.31177 h 0.460669 c 0.25337,0 0.480084,-0.0314 0.503812,-0.0698 0.02373,-0.0384 0.102872,-1.19092 0.175874,-2.56117 0.073,-1.37025 0.187788,-3.46291 0.255079,-4.65036 0.06729,-1.18745 0.181314,-3.2258 0.253386,-4.52966 0.07207,-1.30387 0.226862,-4.02385 0.34398,-6.04441 0.117118,-2.02056 0.197543,-3.68914 0.178726,-3.70796 -0.01881,-0.0188 -1.400937,0.29363 -3.071371,0.69433 -1.670433,0.4007 -3.885226,0.9156 -4.921758,1.14423 -1.036531,0.22862 -1.959163,0.45558 -2.05029,0.50435 -0.255284,0.13662 -0.312566,0.53125 -0.461024,3.17612 -0.0758,1.35044 -0.212375,3.54119 -0.3035,4.86834 -0.198885,2.89651 -0.678276,10.69989 -0.677479,11.02783 5.29e-4,0.22587 0.01458,0.23283 0.468886,0.23283 0.29999,0 0.480608,-0.038 0.5025,-0.10583 z m 12.40242,0.2279 c -0.135895,-0.16374 -0.01849,-2.49897 0.968153,-19.25673 0.118017,-2.00448 0.230917,-3.33228 0.2932,-3.44823 0.05571,-0.10371 0.177372,-0.22928 0.270367,-0.27905 0.093,-0.0498 0.960867,-0.22188 1.928601,-0.38247 0.967735,-0.1606 2.378679,-0.4446 3.135434,-0.63112 1.529319,-0.37694 1.692593,-0.39403 2.041488,-0.21361 0.401945,0.20786 0.457253,0.54068 0.400585,2.41061 -0.05672,1.87169 -0.253108,3.61958 -0.454332,4.04363 -0.143933,0.30331 -0.653629,0.75905 -1.105474,0.98845 -0.38463,0.19527 -1.445191,0.43078 -3.065471,0.68072 -0.765161,0.11804 -1.421825,0.24523 -1.459253,0.28266 -0.03743,0.0374 -0.164053,1.5907 -0.28139,3.45173 -0.117335,1.86102 -0.268396,4.24093 -0.335693,5.28868 -0.06729,1.04774 -0.186915,3.00989 -0.265819,4.36033 -0.100507,1.72009 -0.178414,2.51237 -0.260172,2.64583 -0.107614,0.17566 -0.178393,0.1905 -0.90872,0.1905 -0.61387,0 -0.816639,-0.0297 -0.901504,-0.13193 z m 1.443424,-0.69594 c 0,-0.17592 0.09398,-1.8047 0.208854,-3.6195 0.114869,-1.81479 0.268229,-4.27118 0.340799,-5.45863 0.287621,-4.70627 0.395121,-6.13224 0.473303,-6.27833 0.135776,-0.2537 0.338852,-0.31289 1.865106,-0.54363 1.76045,-0.26614 2.605648,-0.47269 3.085885,-0.75413 0.59005,-0.34579 0.765567,-0.62147 0.873054,-1.37126 0.276931,-1.93178 0.359047,-4.69233 0.148156,-4.98074 -0.113276,-0.15491 -0.16429,-0.14871 -1.672167,0.2033 -0.855427,0.19971 -2.310032,0.48754 -3.232451,0.63964 -0.922422,0.1521 -1.719887,0.3193 -1.772148,0.37156 -0.09584,0.0958 -0.122131,0.42665 -0.357685,4.50093 -0.07134,1.23401 -0.185549,3.17711 -0.253785,4.318 -0.06823,1.14088 -0.202401,3.50308 -0.298143,5.24933 -0.09574,1.74625 -0.230487,4.18137 -0.299429,5.41137 -0.06894,1.23001 -0.125349,2.32539 -0.125349,2.43417 0,0.1853 0.03208,0.19779 0.508,0.19779 h 0.508 z"
       id="path3972" />
    <path
       style="fill:#cd2b37;stroke-width:0.0846667"
       d="m 4.1451557,178.13531 v -0.42333 H 51.092822 98.040488 v 0.42333 0.42334 H 51.092822 4.1451557 Z"
       id="path2271" />
    <path
       style="fill:#069743;stroke-width:0.0846667"
       d="m 4.2016002,176.7242 c -0.031044,-0.031 -0.056444,-0.24059 -0.056444,-0.46566 v -0.40923 H 51.092822 98.040488 v 0.46567 0.46567 H 51.149265 c -25.790171,0 -46.9166204,-0.0254 -46.9476648,-0.0565 z"
       id="path2269" />
  </g>
</svg>
